<mxfile host="app.diagrams.net" modified="2024-04-24T08:01:27.380Z" agent="Mozilla/5.0 (Windows NT 10.0; Win64; x64) AppleWebKit/537.36 (KHTML, like Gecko) Chrome/124.0.0.0 Safari/537.36" etag="j-HBcPBBVU3LDPnrp8qt" version="24.2.8" type="github">
  <diagram name="Page-1" id="zo8Fysw7H4Qtpaqr5c0Y">
    <mxGraphModel dx="1588" dy="892" grid="1" gridSize="10" guides="1" tooltips="1" connect="1" arrows="1" fold="1" page="1" pageScale="1" pageWidth="850" pageHeight="1100" math="0" shadow="0">
      <root>
        <mxCell id="0" />
        <mxCell id="1" parent="0" />
        <mxCell id="-mBXiv1CpG3KM5D4Y9Mz-1" value="Discos" style="rounded=0;whiteSpace=wrap;html=1;" vertex="1" parent="1">
          <mxGeometry x="530" y="400" width="100" height="40" as="geometry" />
        </mxCell>
        <mxCell id="-mBXiv1CpG3KM5D4Y9Mz-38" style="edgeStyle=orthogonalEdgeStyle;rounded=0;orthogonalLoop=1;jettySize=auto;html=1;exitX=0;exitY=0.5;exitDx=0;exitDy=0;entryX=1;entryY=0.5;entryDx=0;entryDy=0;" edge="1" parent="1" source="-mBXiv1CpG3KM5D4Y9Mz-2" target="-mBXiv1CpG3KM5D4Y9Mz-1">
          <mxGeometry relative="1" as="geometry" />
        </mxCell>
        <mxCell id="-mBXiv1CpG3KM5D4Y9Mz-39" style="edgeStyle=orthogonalEdgeStyle;rounded=0;orthogonalLoop=1;jettySize=auto;html=1;exitX=0.5;exitY=0;exitDx=0;exitDy=0;entryX=0.5;entryY=1;entryDx=0;entryDy=0;" edge="1" parent="1" source="-mBXiv1CpG3KM5D4Y9Mz-2" target="-mBXiv1CpG3KM5D4Y9Mz-4">
          <mxGeometry relative="1" as="geometry" />
        </mxCell>
        <mxCell id="-mBXiv1CpG3KM5D4Y9Mz-2" value="Tiene" style="rhombus;whiteSpace=wrap;html=1;" vertex="1" parent="1">
          <mxGeometry x="670" y="387.5" width="60" height="65" as="geometry" />
        </mxCell>
        <mxCell id="-mBXiv1CpG3KM5D4Y9Mz-33" style="edgeStyle=orthogonalEdgeStyle;rounded=0;orthogonalLoop=1;jettySize=auto;html=1;exitX=1;exitY=0.5;exitDx=0;exitDy=0;entryX=0.5;entryY=0;entryDx=0;entryDy=0;" edge="1" parent="1" source="-mBXiv1CpG3KM5D4Y9Mz-3" target="-mBXiv1CpG3KM5D4Y9Mz-1">
          <mxGeometry relative="1" as="geometry" />
        </mxCell>
        <mxCell id="-mBXiv1CpG3KM5D4Y9Mz-36" style="edgeStyle=orthogonalEdgeStyle;rounded=0;orthogonalLoop=1;jettySize=auto;html=1;exitX=1;exitY=0;exitDx=0;exitDy=0;entryX=0;entryY=0.25;entryDx=0;entryDy=0;" edge="1" parent="1" source="-mBXiv1CpG3KM5D4Y9Mz-3" target="-mBXiv1CpG3KM5D4Y9Mz-4">
          <mxGeometry relative="1" as="geometry" />
        </mxCell>
        <mxCell id="-mBXiv1CpG3KM5D4Y9Mz-3" value="Lleva" style="rhombus;whiteSpace=wrap;html=1;" vertex="1" parent="1">
          <mxGeometry x="425" y="315" width="60" height="65" as="geometry" />
        </mxCell>
        <mxCell id="-mBXiv1CpG3KM5D4Y9Mz-46" style="edgeStyle=orthogonalEdgeStyle;rounded=0;orthogonalLoop=1;jettySize=auto;html=1;exitX=0.5;exitY=0;exitDx=0;exitDy=0;entryX=0.5;entryY=1;entryDx=0;entryDy=0;" edge="1" parent="1" source="-mBXiv1CpG3KM5D4Y9Mz-4" target="-mBXiv1CpG3KM5D4Y9Mz-20">
          <mxGeometry relative="1" as="geometry" />
        </mxCell>
        <mxCell id="-mBXiv1CpG3KM5D4Y9Mz-4" value="Libros" style="rounded=0;whiteSpace=wrap;html=1;" vertex="1" parent="1">
          <mxGeometry x="650" y="300" width="100" height="40" as="geometry" />
        </mxCell>
        <mxCell id="-mBXiv1CpG3KM5D4Y9Mz-37" style="edgeStyle=orthogonalEdgeStyle;rounded=0;orthogonalLoop=1;jettySize=auto;html=1;exitX=0;exitY=0.5;exitDx=0;exitDy=0;entryX=1;entryY=0.5;entryDx=0;entryDy=0;" edge="1" parent="1" source="-mBXiv1CpG3KM5D4Y9Mz-5" target="-mBXiv1CpG3KM5D4Y9Mz-2">
          <mxGeometry relative="1" as="geometry" />
        </mxCell>
        <mxCell id="-mBXiv1CpG3KM5D4Y9Mz-40" style="edgeStyle=orthogonalEdgeStyle;rounded=0;orthogonalLoop=1;jettySize=auto;html=1;exitX=1;exitY=0.5;exitDx=0;exitDy=0;entryX=0;entryY=0.5;entryDx=0;entryDy=0;" edge="1" parent="1" source="-mBXiv1CpG3KM5D4Y9Mz-5" target="-mBXiv1CpG3KM5D4Y9Mz-6">
          <mxGeometry relative="1" as="geometry" />
        </mxCell>
        <mxCell id="-mBXiv1CpG3KM5D4Y9Mz-5" value="Almacen" style="rounded=0;whiteSpace=wrap;html=1;" vertex="1" parent="1">
          <mxGeometry x="780" y="400" width="100" height="40" as="geometry" />
        </mxCell>
        <mxCell id="-mBXiv1CpG3KM5D4Y9Mz-43" style="edgeStyle=orthogonalEdgeStyle;rounded=0;orthogonalLoop=1;jettySize=auto;html=1;exitX=1;exitY=0.5;exitDx=0;exitDy=0;entryX=0;entryY=0.5;entryDx=0;entryDy=0;" edge="1" parent="1" source="-mBXiv1CpG3KM5D4Y9Mz-6" target="-mBXiv1CpG3KM5D4Y9Mz-7">
          <mxGeometry relative="1" as="geometry" />
        </mxCell>
        <mxCell id="-mBXiv1CpG3KM5D4Y9Mz-6" value="Pertenecen" style="rhombus;whiteSpace=wrap;html=1;" vertex="1" parent="1">
          <mxGeometry x="920" y="387.5" width="60" height="65" as="geometry" />
        </mxCell>
        <mxCell id="-mBXiv1CpG3KM5D4Y9Mz-42" style="edgeStyle=orthogonalEdgeStyle;rounded=0;orthogonalLoop=1;jettySize=auto;html=1;exitX=0.5;exitY=1;exitDx=0;exitDy=0;entryX=0.5;entryY=0;entryDx=0;entryDy=0;" edge="1" parent="1" source="-mBXiv1CpG3KM5D4Y9Mz-7" target="-mBXiv1CpG3KM5D4Y9Mz-8">
          <mxGeometry relative="1" as="geometry" />
        </mxCell>
        <mxCell id="-mBXiv1CpG3KM5D4Y9Mz-7" value="Provincia" style="rounded=0;whiteSpace=wrap;html=1;" vertex="1" parent="1">
          <mxGeometry x="1020" y="400" width="100" height="40" as="geometry" />
        </mxCell>
        <mxCell id="-mBXiv1CpG3KM5D4Y9Mz-41" style="edgeStyle=orthogonalEdgeStyle;rounded=0;orthogonalLoop=1;jettySize=auto;html=1;exitX=0;exitY=0.5;exitDx=0;exitDy=0;entryX=0.5;entryY=1;entryDx=0;entryDy=0;" edge="1" parent="1" source="-mBXiv1CpG3KM5D4Y9Mz-8" target="-mBXiv1CpG3KM5D4Y9Mz-5">
          <mxGeometry relative="1" as="geometry" />
        </mxCell>
        <mxCell id="-mBXiv1CpG3KM5D4Y9Mz-8" value="Es suministrado" style="rhombus;whiteSpace=wrap;html=1;" vertex="1" parent="1">
          <mxGeometry x="1040" y="490" width="60" height="65" as="geometry" />
        </mxCell>
        <mxCell id="-mBXiv1CpG3KM5D4Y9Mz-31" style="edgeStyle=orthogonalEdgeStyle;rounded=0;orthogonalLoop=1;jettySize=auto;html=1;exitX=0.5;exitY=0;exitDx=0;exitDy=0;entryX=0.5;entryY=1;entryDx=0;entryDy=0;" edge="1" parent="1" source="-mBXiv1CpG3KM5D4Y9Mz-9" target="-mBXiv1CpG3KM5D4Y9Mz-3">
          <mxGeometry relative="1" as="geometry" />
        </mxCell>
        <mxCell id="-mBXiv1CpG3KM5D4Y9Mz-9" value="Pedido" style="rounded=0;whiteSpace=wrap;html=1;" vertex="1" parent="1">
          <mxGeometry x="480" y="530" width="100" height="40" as="geometry" />
        </mxCell>
        <mxCell id="-mBXiv1CpG3KM5D4Y9Mz-30" style="edgeStyle=orthogonalEdgeStyle;rounded=0;orthogonalLoop=1;jettySize=auto;html=1;exitX=0.5;exitY=0;exitDx=0;exitDy=0;entryX=0.5;entryY=1;entryDx=0;entryDy=0;" edge="1" parent="1" source="-mBXiv1CpG3KM5D4Y9Mz-10" target="-mBXiv1CpG3KM5D4Y9Mz-9">
          <mxGeometry relative="1" as="geometry" />
        </mxCell>
        <mxCell id="-mBXiv1CpG3KM5D4Y9Mz-10" value="Conlleva" style="rhombus;whiteSpace=wrap;html=1;" vertex="1" parent="1">
          <mxGeometry x="500" y="630" width="60" height="65" as="geometry" />
        </mxCell>
        <mxCell id="-mBXiv1CpG3KM5D4Y9Mz-29" style="edgeStyle=orthogonalEdgeStyle;rounded=0;orthogonalLoop=1;jettySize=auto;html=1;exitX=1;exitY=0.25;exitDx=0;exitDy=0;entryX=0;entryY=0.5;entryDx=0;entryDy=0;" edge="1" parent="1" source="-mBXiv1CpG3KM5D4Y9Mz-11" target="-mBXiv1CpG3KM5D4Y9Mz-10">
          <mxGeometry relative="1" as="geometry" />
        </mxCell>
        <mxCell id="-mBXiv1CpG3KM5D4Y9Mz-11" value="Hojas de pedido" style="rounded=0;whiteSpace=wrap;html=1;" vertex="1" parent="1">
          <mxGeometry x="360" y="642.5" width="100" height="40" as="geometry" />
        </mxCell>
        <mxCell id="-mBXiv1CpG3KM5D4Y9Mz-28" style="edgeStyle=orthogonalEdgeStyle;rounded=0;orthogonalLoop=1;jettySize=auto;html=1;exitX=1;exitY=0.5;exitDx=0;exitDy=0;entryX=0;entryY=0.5;entryDx=0;entryDy=0;" edge="1" parent="1" source="-mBXiv1CpG3KM5D4Y9Mz-13" target="-mBXiv1CpG3KM5D4Y9Mz-11">
          <mxGeometry relative="1" as="geometry" />
        </mxCell>
        <mxCell id="-mBXiv1CpG3KM5D4Y9Mz-13" value="Rellena" style="rhombus;whiteSpace=wrap;html=1;" vertex="1" parent="1">
          <mxGeometry x="230" y="630" width="60" height="65" as="geometry" />
        </mxCell>
        <mxCell id="-mBXiv1CpG3KM5D4Y9Mz-27" style="edgeStyle=orthogonalEdgeStyle;rounded=0;orthogonalLoop=1;jettySize=auto;html=1;exitX=0.5;exitY=1;exitDx=0;exitDy=0;entryX=0.5;entryY=0;entryDx=0;entryDy=0;" edge="1" parent="1" source="-mBXiv1CpG3KM5D4Y9Mz-14" target="-mBXiv1CpG3KM5D4Y9Mz-13">
          <mxGeometry relative="1" as="geometry" />
        </mxCell>
        <mxCell id="-mBXiv1CpG3KM5D4Y9Mz-48" style="edgeStyle=orthogonalEdgeStyle;rounded=0;orthogonalLoop=1;jettySize=auto;html=1;exitX=0;exitY=1;exitDx=0;exitDy=0;entryX=1;entryY=1;entryDx=0;entryDy=0;" edge="1" parent="1" source="-mBXiv1CpG3KM5D4Y9Mz-14" target="-mBXiv1CpG3KM5D4Y9Mz-15">
          <mxGeometry relative="1" as="geometry">
            <Array as="points">
              <mxPoint x="250" y="550" />
              <mxPoint x="155" y="550" />
            </Array>
          </mxGeometry>
        </mxCell>
        <mxCell id="-mBXiv1CpG3KM5D4Y9Mz-14" value="Socios" style="rounded=0;whiteSpace=wrap;html=1;" vertex="1" parent="1">
          <mxGeometry x="250" y="490" width="100" height="40" as="geometry" />
        </mxCell>
        <mxCell id="-mBXiv1CpG3KM5D4Y9Mz-50" style="edgeStyle=orthogonalEdgeStyle;rounded=0;orthogonalLoop=1;jettySize=auto;html=1;exitX=1;exitY=0;exitDx=0;exitDy=0;entryX=0;entryY=0.25;entryDx=0;entryDy=0;" edge="1" parent="1" source="-mBXiv1CpG3KM5D4Y9Mz-15" target="-mBXiv1CpG3KM5D4Y9Mz-14">
          <mxGeometry relative="1" as="geometry">
            <Array as="points">
              <mxPoint x="155" y="480" />
              <mxPoint x="220" y="480" />
              <mxPoint x="220" y="500" />
            </Array>
          </mxGeometry>
        </mxCell>
        <mxCell id="-mBXiv1CpG3KM5D4Y9Mz-15" value="Se avala" style="rhombus;whiteSpace=wrap;html=1;" vertex="1" parent="1">
          <mxGeometry x="110" y="477.5" width="60" height="65" as="geometry" />
        </mxCell>
        <mxCell id="-mBXiv1CpG3KM5D4Y9Mz-26" style="edgeStyle=orthogonalEdgeStyle;rounded=0;orthogonalLoop=1;jettySize=auto;html=1;exitX=0.5;exitY=1;exitDx=0;exitDy=0;entryX=0.5;entryY=0;entryDx=0;entryDy=0;" edge="1" parent="1" source="-mBXiv1CpG3KM5D4Y9Mz-16" target="-mBXiv1CpG3KM5D4Y9Mz-14">
          <mxGeometry relative="1" as="geometry" />
        </mxCell>
        <mxCell id="-mBXiv1CpG3KM5D4Y9Mz-16" value="Se vuelve" style="rhombus;whiteSpace=wrap;html=1;" vertex="1" parent="1">
          <mxGeometry x="260" y="380" width="60" height="65" as="geometry" />
        </mxCell>
        <mxCell id="-mBXiv1CpG3KM5D4Y9Mz-25" style="edgeStyle=orthogonalEdgeStyle;rounded=0;orthogonalLoop=1;jettySize=auto;html=1;exitX=0.5;exitY=1;exitDx=0;exitDy=0;entryX=0.5;entryY=0;entryDx=0;entryDy=0;" edge="1" parent="1" source="-mBXiv1CpG3KM5D4Y9Mz-17" target="-mBXiv1CpG3KM5D4Y9Mz-16">
          <mxGeometry relative="1" as="geometry" />
        </mxCell>
        <mxCell id="-mBXiv1CpG3KM5D4Y9Mz-17" value="Clientes" style="rounded=0;whiteSpace=wrap;html=1;" vertex="1" parent="1">
          <mxGeometry x="240" y="270" width="100" height="40" as="geometry" />
        </mxCell>
        <mxCell id="-mBXiv1CpG3KM5D4Y9Mz-47" style="edgeStyle=orthogonalEdgeStyle;rounded=0;orthogonalLoop=1;jettySize=auto;html=1;exitX=0.5;exitY=0;exitDx=0;exitDy=0;entryX=0.5;entryY=1;entryDx=0;entryDy=0;" edge="1" parent="1" source="-mBXiv1CpG3KM5D4Y9Mz-20" target="-mBXiv1CpG3KM5D4Y9Mz-22">
          <mxGeometry relative="1" as="geometry" />
        </mxCell>
        <mxCell id="-mBXiv1CpG3KM5D4Y9Mz-20" value="Pertenece" style="rhombus;whiteSpace=wrap;html=1;" vertex="1" parent="1">
          <mxGeometry x="670" y="180" width="60" height="65" as="geometry" />
        </mxCell>
        <mxCell id="-mBXiv1CpG3KM5D4Y9Mz-22" value="Colecciones" style="rounded=0;whiteSpace=wrap;html=1;" vertex="1" parent="1">
          <mxGeometry x="650" y="70" width="100" height="40" as="geometry" />
        </mxCell>
        <mxCell id="-mBXiv1CpG3KM5D4Y9Mz-44" style="edgeStyle=orthogonalEdgeStyle;rounded=0;orthogonalLoop=1;jettySize=auto;html=1;exitX=0.5;exitY=1;exitDx=0;exitDy=0;entryX=0.5;entryY=0;entryDx=0;entryDy=0;" edge="1" parent="1" source="-mBXiv1CpG3KM5D4Y9Mz-23" target="-mBXiv1CpG3KM5D4Y9Mz-7">
          <mxGeometry relative="1" as="geometry" />
        </mxCell>
        <mxCell id="-mBXiv1CpG3KM5D4Y9Mz-23" value="Pertenece" style="rhombus;whiteSpace=wrap;html=1;" vertex="1" parent="1">
          <mxGeometry x="1040" y="270" width="60" height="65" as="geometry" />
        </mxCell>
        <mxCell id="-mBXiv1CpG3KM5D4Y9Mz-45" style="edgeStyle=orthogonalEdgeStyle;rounded=0;orthogonalLoop=1;jettySize=auto;html=1;exitX=0.5;exitY=1;exitDx=0;exitDy=0;entryX=0.5;entryY=0;entryDx=0;entryDy=0;" edge="1" parent="1" source="-mBXiv1CpG3KM5D4Y9Mz-24" target="-mBXiv1CpG3KM5D4Y9Mz-23">
          <mxGeometry relative="1" as="geometry" />
        </mxCell>
        <mxCell id="-mBXiv1CpG3KM5D4Y9Mz-24" value="Poblacion" style="rounded=0;whiteSpace=wrap;html=1;" vertex="1" parent="1">
          <mxGeometry x="1020" y="160" width="100" height="40" as="geometry" />
        </mxCell>
        <mxCell id="-mBXiv1CpG3KM5D4Y9Mz-52" value="Apellidos" style="text;html=1;align=center;verticalAlign=middle;resizable=0;points=[];autosize=1;strokeColor=none;fillColor=none;" vertex="1" parent="1">
          <mxGeometry x="125" y="260" width="70" height="30" as="geometry" />
        </mxCell>
        <mxCell id="-mBXiv1CpG3KM5D4Y9Mz-53" value="Telefono" style="text;html=1;align=center;verticalAlign=middle;resizable=0;points=[];autosize=1;strokeColor=none;fillColor=none;" vertex="1" parent="1">
          <mxGeometry x="180" y="208" width="70" height="30" as="geometry" />
        </mxCell>
        <mxCell id="-mBXiv1CpG3KM5D4Y9Mz-54" value="Domicilio" style="text;html=1;align=center;verticalAlign=middle;resizable=0;points=[];autosize=1;strokeColor=none;fillColor=none;" vertex="1" parent="1">
          <mxGeometry x="125" y="315" width="70" height="30" as="geometry" />
        </mxCell>
        <mxCell id="-mBXiv1CpG3KM5D4Y9Mz-55" value="Nombre" style="text;html=1;align=center;verticalAlign=middle;resizable=0;points=[];autosize=1;strokeColor=none;fillColor=none;" vertex="1" parent="1">
          <mxGeometry x="270" y="200" width="70" height="30" as="geometry" />
        </mxCell>
        <mxCell id="-mBXiv1CpG3KM5D4Y9Mz-56" value="Fecha de nacimiento" style="text;html=1;align=center;verticalAlign=middle;resizable=0;points=[];autosize=1;strokeColor=none;fillColor=none;" vertex="1" parent="1">
          <mxGeometry x="370" y="270" width="130" height="30" as="geometry" />
        </mxCell>
        <mxCell id="-mBXiv1CpG3KM5D4Y9Mz-57" value="DNI" style="text;html=1;align=center;verticalAlign=middle;resizable=0;points=[];autosize=1;strokeColor=none;fillColor=none;" vertex="1" parent="1">
          <mxGeometry x="360" y="220" width="40" height="30" as="geometry" />
        </mxCell>
        <mxCell id="-mBXiv1CpG3KM5D4Y9Mz-64" value="Aval" style="text;html=1;align=center;verticalAlign=middle;resizable=0;points=[];autosize=1;strokeColor=none;fillColor=none;" vertex="1" parent="1">
          <mxGeometry x="230" y="447.5" width="50" height="30" as="geometry" />
        </mxCell>
        <mxCell id="-mBXiv1CpG3KM5D4Y9Mz-65" value="Número socio" style="text;html=1;align=center;verticalAlign=middle;resizable=0;points=[];autosize=1;strokeColor=none;fillColor=none;" vertex="1" parent="1">
          <mxGeometry x="320" y="447.5" width="100" height="30" as="geometry" />
        </mxCell>
        <mxCell id="-mBXiv1CpG3KM5D4Y9Mz-66" value="DNI" style="text;html=1;align=center;verticalAlign=middle;resizable=0;points=[];autosize=1;strokeColor=none;fillColor=none;" vertex="1" parent="1">
          <mxGeometry x="340" y="530" width="40" height="30" as="geometry" />
        </mxCell>
        <mxCell id="-mBXiv1CpG3KM5D4Y9Mz-67" value="Codigo" style="text;html=1;align=center;verticalAlign=middle;resizable=0;points=[];autosize=1;strokeColor=none;fillColor=none;" vertex="1" parent="1">
          <mxGeometry x="380" y="695" width="60" height="30" as="geometry" />
        </mxCell>
        <mxCell id="-mBXiv1CpG3KM5D4Y9Mz-68" value="Metodo de envio" style="text;html=1;align=center;verticalAlign=middle;resizable=0;points=[];autosize=1;strokeColor=none;fillColor=none;" vertex="1" parent="1">
          <mxGeometry x="410" y="490" width="110" height="30" as="geometry" />
        </mxCell>
        <mxCell id="-mBXiv1CpG3KM5D4Y9Mz-69" value="Metodo de pago" style="text;html=1;align=center;verticalAlign=middle;resizable=0;points=[];autosize=1;strokeColor=none;fillColor=none;" vertex="1" parent="1">
          <mxGeometry x="540" y="580" width="110" height="30" as="geometry" />
        </mxCell>
        <mxCell id="-mBXiv1CpG3KM5D4Y9Mz-70" value="Numero pedido" style="text;html=1;align=center;verticalAlign=middle;resizable=0;points=[];autosize=1;strokeColor=none;fillColor=none;" vertex="1" parent="1">
          <mxGeometry x="580" y="530" width="110" height="30" as="geometry" />
        </mxCell>
        <mxCell id="-mBXiv1CpG3KM5D4Y9Mz-71" value="Cantidad libros" style="text;html=1;align=center;verticalAlign=middle;resizable=0;points=[];autosize=1;strokeColor=none;fillColor=none;" vertex="1" parent="1">
          <mxGeometry x="535" y="490" width="100" height="30" as="geometry" />
        </mxCell>
      </root>
    </mxGraphModel>
  </diagram>
</mxfile>
